<svg width="16" height="16" viewBox="0 0 16 16" fill="none" xmlns="http://www.w3.org/2000/svg">
<path d="M6.74992 14.6667C6.74992 15.357 7.30959 15.9167 7.99992 15.9167C8.69025 15.9167 9.24992 15.357 9.24992 14.6667V9.24999H14.6666C15.3569 9.24999 15.9166 8.69033 15.9166 7.99999C15.9166 7.30966 15.3569 6.74999 14.6666 6.74999H9.24992V1.33333C9.24992 0.64297 8.69025 0.0833282 7.99992 0.0833282C7.30959 0.0833282 6.74992 0.64297 6.74992 1.33333V6.74999H1.33325C0.642894 6.74999 0.083252 7.30966 0.083252 7.99999C0.083252 8.69033 0.642894 9.24999 1.33325 9.24999H6.74992V14.6667Z" fill="white"/>
</svg>
