<svg width="16" height="16" viewBox="0 0 16 16" fill="none" xmlns="http://www.w3.org/2000/svg">
<path d="M15.5 8V13.8333C15.5 14.7538 14.7538 15.5 13.8333 15.5H2.16667C1.24619 15.5 0.5 14.7538 0.5 13.8333V8H15.5ZM11.3333 0.5C11.7936 0.5 12.1667 0.8731 12.1667 1.33333V2.16667H13.8333C14.7538 2.16667 15.5 2.91286 15.5 3.83333V6.33333H0.5V3.83333C0.5 2.91286 1.24619 2.16667 2.16667 2.16667H3.83333V1.33333C3.83333 0.8731 4.20643 0.5 4.66667 0.5C5.1269 0.5 5.5 0.8731 5.5 1.33333V2.16667H10.5V1.33333C10.5 0.8731 10.8731 0.5 11.3333 0.5Z" fill="white"/>
</svg>
