<svg width="17" height="16" viewBox="0 0 17 16" fill="none" xmlns="http://www.w3.org/2000/svg">
<path d="M9.33329 0.5C10.212 0.5 10.9318 1.1799 10.9954 2.04228L11 2.16667V15.5H5.99996V2.16667C5.99996 1.28803 6.67986 0.568196 7.54224 0.504571L7.66663 0.5H9.33329ZM15.1666 4.66667C16.0871 4.66667 16.8333 5.41286 16.8333 6.33333V13.8333C16.8333 14.7538 16.0871 15.5 15.1666 15.5H12.6666V4.66667H15.1666ZM4.33329 7.16667V15.5H1.83329C0.912818 15.5 0.166626 14.7538 0.166626 13.8333V8.83333C0.166626 7.91283 0.912818 7.16667 1.83329 7.16667H4.33329Z" fill="white"/>
</svg>
