<svg width="20" height="17" viewBox="0 0 20 17" fill="none" xmlns="http://www.w3.org/2000/svg">
<path d="M11 10C13.2091 10 15 11.7909 15 14V15.5C15 16.3284 14.3284 17 13.5 17H1.5C0.67157 17 0 16.3284 0 15.5V14C0 11.7909 1.79086 10 4 10H11ZM17 10.0002C18.6569 10.0002 20 11.3434 20 13.0002V14.5002C20 15.3287 19.3284 16.0002 18.5 16.0002H17V14C17 12.3645 16.2148 10.9125 15.0008 10.0002H17ZM7.5 0C9.9853 0 12 2.01472 12 4.5C12 6.98528 9.9853 9 7.5 9C5.01472 9 3 6.98528 3 4.5C3 2.01472 5.01472 0 7.5 0ZM16 3C17.6569 3 19 4.34315 19 6C19 7.6569 17.6569 9 16 9C14.3431 9 13 7.6569 13 6C13 4.34315 14.3431 3 16 3Z" fill="#FC7785"/>
</svg>
