<svg width="16" height="18" viewBox="0 0 16 18" fill="none" xmlns="http://www.w3.org/2000/svg">
<path d="M14.6667 3.16667C15.1269 3.16667 15.5 3.53977 15.5 4C15.5 4.46023 15.1269 4.83333 14.6667 4.83333H13.8334L13.8312 4.89274L13.0532 15.7854C12.9909 16.6576 12.2652 17.3333 11.3907 17.3333H4.6093C3.73491 17.3333 3.00917 16.6576 2.94687 15.7854L2.16882 4.89274C2.1674 4.87282 2.16668 4.85301 2.16667 4.83333H1.33333C0.8731 4.83333 0.5 4.46023 0.5 4C0.5 3.53977 0.8731 3.16667 1.33333 3.16667H14.6667ZM9.66667 0.666666C10.1269 0.666666 10.5 1.03977 10.5 1.5C10.5 1.96023 10.1269 2.33333 9.66667 2.33333H6.33333C5.8731 2.33333 5.5 1.96023 5.5 1.5C5.5 1.03977 5.8731 0.666666 6.33333 0.666666H9.66667Z" fill="white" fill-opacity="0.7"/>
</svg>
