<svg width="16" height="12" viewBox="0 0 16 12" fill="none" xmlns="http://www.w3.org/2000/svg">
<path d="M9.66667 10.1667C10.1269 10.1667 10.5 10.5398 10.5 11C10.5 11.4274 10.1783 11.7796 9.76385 11.8277L9.66667 11.8333H6.33333C5.8731 11.8333 5.5 11.4603 5.5 11C5.5 10.5726 5.8217 10.2204 6.23615 10.1723L6.33333 10.1667H9.66667ZM12.1667 5.16667C12.6269 5.16667 13 5.53976 13 6.00001C13 6.46026 12.6269 6.83334 12.1667 6.83334H3.83333C3.3731 6.83334 3 6.46026 3 6.00001C3 5.53976 3.3731 5.16667 3.83333 5.16667H12.1667ZM14.6667 0.166672C15.1269 0.166672 15.5 0.539772 15.5 1.00001C15.5 1.46024 15.1269 1.83334 14.6667 1.83334H1.33333C0.8731 1.83334 0.5 1.46024 0.5 1.00001C0.5 0.539772 0.8731 0.166672 1.33333 0.166672H14.6667Z" fill="white"/>
</svg>
