<svg width="22" height="16" viewBox="0 0 22 16" fill="none" xmlns="http://www.w3.org/2000/svg">
<path d="M16 0C17.1059 0 17.9552 0.843001 18.5842 1.74967L18.7972 2.07105L18.9922 2.3901C19.0542 2.49522 19.1133 2.59868 19.1696 2.69921C19.9568 4.10625 20.6416 5.94322 21.0951 7.7575C21.5456 9.5593 21.7935 11.4395 21.6349 12.919C21.4759 14.4035 20.7111 16 19 16C17.4664 16 16.2573 15.1798 15.2747 14.3787L14.1642 13.4475C13.2433 12.6921 12.2327 12 11 12C9.76734 12 8.75671 12.6921 7.83577 13.4475L6.72529 14.3787C5.74266 15.1798 4.53359 16 3.00002 16C1.28897 16 0.524191 14.4035 0.365151 12.919C0.206631 11.4395 0.454481 9.5593 0.904931 7.7575C1.35847 5.94323 2.04321 4.10626 2.83047 2.69922L3.00789 2.39011L3.20289 2.07105L3.41583 1.74967C4.04488 0.842995 4.89416 0 6.00002 0C6.5097 0 7.01722 0.123929 7.51522 0.270883L8.10778 0.451821C8.20562 0.481667 8.30297 0.510819 8.39975 0.53847C9.2653 0.78576 10.15 1 11 1C11.85 1 12.7347 0.78576 13.6003 0.53848L14.4848 0.270881C14.9828 0.123926 15.4903 0 16 0ZM7.5 4C6.11929 4 5 5.11929 5 6.5C5 7.8807 6.11929 9 7.5 9C8.88071 9 10 7.8807 10 6.5C10 5.11929 8.88071 4 7.5 4ZM14.5 4C13.9477 4 13.5 4.44772 13.5 5V5.5H13C12.4477 5.5 12 5.94772 12 6.5C12 7.0523 12.4477 7.5 13 7.5H13.5V8C13.5 8.5523 13.9477 9 14.5 9C15.0523 9 15.5 8.5523 15.5 8V7.5H16C16.5523 7.5 17 7.0523 17 6.5C17 5.94772 16.5523 5.5 16 5.5H15.5V5C15.5 4.44772 15.0523 4 14.5 4ZM7.5 6C7.77614 6 8 6.2239 8 6.5C8 6.7761 7.77614 7 7.5 7C7.22386 7 7 6.7761 7 6.5C7 6.2239 7.22386 6 7.5 6Z" fill="#EE0BD7"/>
</svg>
