<svg width="45" height="28" viewBox="0 0 45 28" fill="none" xmlns="http://www.w3.org/2000/svg">
<path fill-rule="evenodd" clip-rule="evenodd" d="M31.0591 23.6923C36.3894 23.6923 40.7105 19.3529 40.7105 14C40.7105 8.64709 36.3894 4.30769 31.0591 4.30769C28.1918 4.30769 25.6159 5.5619 23.8456 7.56039C23.7948 7.64101 23.738 7.71919 23.6753 7.79432L23.2487 8.30486C23.2138 8.35302 23.1679 8.39349 23.1338 8.44232L15.3695 17.7347C14.6081 18.6459 13.2553 18.7648 12.3479 18.0001C11.4405 17.2355 11.3221 15.877 12.0835 14.9657L19.5074 6.08085C17.9339 4.96287 16.0147 4.30769 13.9409 4.30769C8.6106 4.30769 4.28951 8.64709 4.28951 14C4.28951 19.3529 8.6106 23.6923 13.9409 23.6923C16.8084 23.6923 19.3843 22.4381 21.1544 20.4396C21.2053 20.359 21.2621 20.2808 21.3249 20.2057L21.7515 19.6951C21.7864 19.647 21.8321 19.6065 21.8662 19.5577L29.6307 10.2653C30.3921 9.35409 31.7448 9.23524 32.6522 9.99986C33.5597 10.7645 33.678 12.123 32.9167 13.0343L25.4928 21.9193C27.0662 23.0371 28.9853 23.6923 31.0591 23.6923ZM22.5 25.0512C24.8614 26.8979 27.8334 28 31.0591 28C38.7585 28 45 21.7321 45 14C45 6.26802 38.7585 6.75952e-07 31.0591 0C27.8321 -2.83313e-07 24.8616 1.10205 22.5002 2.94874C20.1386 1.10213 17.1666 1.22392e-06 13.9409 1.22392e-06C6.24156 1.22392e-06 0 6.26802 0 14C0 21.7321 6.24156 28 13.9409 28C17.168 28 20.1386 26.8979 22.5 25.0512Z" fill="white"/>
</svg>
