<svg width="16" height="16" viewBox="0 0 16 16" fill="none" xmlns="http://www.w3.org/2000/svg">
<path d="M10.5 14.3333C10.5 15.212 9.82008 15.9318 8.95768 15.9954L8.83329 16H7.16662C6.28799 16 5.56815 15.3201 5.50453 14.4577L5.49996 14.3333H10.5ZM8.00012 0.166656C11.1547 0.166656 13.7244 2.67065 13.8301 5.79945L13.8335 5.99999V9.13657L15.3518 12.1734C15.642 12.7539 15.2539 13.4319 14.6276 13.4952L14.532 13.5H1.46827C0.819282 13.5 0.386375 12.8496 0.609872 12.2611L0.648374 12.1734L2.16676 9.13657V5.99999C2.16676 2.77833 4.77843 0.166656 8.00012 0.166656Z" fill="white"/>
</svg>
