<svg width="15" height="15" viewBox="0 0 15 15" fill="none" xmlns="http://www.w3.org/2000/svg">
<path d="M13.8333 12.8333C14.2936 12.8333 14.6666 13.2064 14.6666 13.6667C14.6666 14.094 14.345 14.4463 13.9305 14.4944L13.8333 14.5H7.99998C7.53973 14.5 7.16665 14.1269 7.16665 13.6667C7.16665 13.2393 7.48834 12.8871 7.90279 12.8389L7.99998 12.8333H13.8333ZM11.4133 0.640183C12.2269 -0.173409 13.546 -0.173409 14.3596 0.640183C15.1378 1.4184 15.1716 2.65912 14.4611 3.47755L14.3596 3.58646L5.27955 12.6665C5.20005 12.746 5.11033 12.8143 5.01286 12.8696L4.91291 12.9206L1.74281 14.3615C1.06892 14.6678 0.377104 14.0144 0.604905 13.3411L0.638238 13.2569L2.07919 10.0868C2.12571 9.98452 2.18575 9.88905 2.25757 9.80303L2.33326 9.72025L11.4133 0.640183Z" fill="white" fill-opacity="0.7"/>
</svg>
