<svg width="17" height="17" viewBox="0 0 17 17" fill="none" xmlns="http://www.w3.org/2000/svg">
<path fill-rule="evenodd" clip-rule="evenodd" d="M7.74996 0.666656C3.83794 0.666656 0.666626 3.83797 0.666626 7.74999C0.666626 11.662 3.83794 14.8333 7.74996 14.8333C9.40571 14.8333 10.9288 14.2652 12.1349 13.3133L15.1785 16.3569C15.5039 16.6823 16.0315 16.6823 16.357 16.3569C16.6824 16.0315 16.6824 15.5038 16.357 15.1784L13.3134 12.1348C14.2652 10.9287 14.8333 9.40566 14.8333 7.74999C14.8333 3.83797 11.662 0.666656 7.74996 0.666656ZM2.33329 7.74999C2.33329 4.75845 4.75842 2.33332 7.74996 2.33332C10.7415 2.33332 13.1666 4.75845 13.1666 7.74999C13.1666 10.7416 10.7415 13.1667 7.74996 13.1667C4.75842 13.1667 2.33329 10.7416 2.33329 7.74999Z" fill="white" fill-opacity="0.5"/>
</svg>
