<svg width="20" height="20" viewBox="0 0 20 20" fill="none" xmlns="http://www.w3.org/2000/svg">
<path d="M12.4093 0.29252C13.3919 0.53569 14.3171 0.92399 15.1605 1.43303C15.5108 1.64448 15.697 2.04803 15.6305 2.45178C15.5169 3.14078 15.6882 3.66772 16.0103 3.98974C16.3323 4.31176 16.8592 4.48308 17.5482 4.36954C17.952 4.30301 18.3555 4.48917 18.567 4.83951C19.076 5.68291 19.4643 6.60804 19.7074 7.59069C19.8058 7.98806 19.652 8.4052 19.3193 8.6437C18.7515 9.0507 18.4999 9.5446 18.4999 10.0001C18.4999 10.4556 18.7515 10.9495 19.3193 11.3565C19.652 11.5949 19.8058 12.0121 19.7074 12.4095C19.4643 13.3922 19.0759 14.3173 18.5669 15.1608C18.3555 15.5111 17.9519 15.6973 17.5482 15.6307C16.8592 15.5172 16.3323 15.6885 16.0103 16.0105C15.6883 16.3325 15.5169 16.8595 15.6305 17.5484C15.697 17.9522 15.5108 18.3557 15.1605 18.5672C14.3171 19.0762 13.3919 19.4645 12.4092 19.7077C12.0119 19.806 11.5947 19.6522 11.3562 19.3195C10.9493 18.7517 10.4554 18.5001 9.9999 18.5001C9.5443 18.5001 9.0504 18.7517 8.6435 19.3195C8.405 19.6522 7.98782 19.806 7.59046 19.7077C6.60778 19.4645 5.68263 19.0762 4.83922 18.5672C4.48888 18.3557 4.30272 17.9522 4.36925 17.5484C4.48277 16.8595 4.31146 16.3325 3.98944 16.0105C3.66743 15.6885 3.14051 15.5172 2.45154 15.6307C2.04779 15.6973 1.64424 15.5111 1.4328 15.1608C0.92375 14.3173 0.53545 13.3922 0.29227 12.4095C0.19394 12.0121 0.34772 11.5949 0.68044 11.3565C1.24825 10.9495 1.49985 10.4556 1.49985 10.0001C1.49985 9.5446 1.24825 9.0507 0.68044 8.6437C0.34772 8.4052 0.19394 7.98806 0.29227 7.5907C0.53544 6.60804 0.92373 5.68291 1.43274 4.83952C1.64419 4.48918 2.04774 4.30301 2.4515 4.36955C3.14049 4.48309 3.66743 4.31177 3.98945 3.98975C4.31147 3.66772 4.48279 3.14078 4.36924 2.45179C4.30271 2.04803 4.48887 1.64447 4.83921 1.43303C5.68262 0.92399 6.60777 0.53569 7.59045 0.29252C7.98782 0.19418 8.405 0.34797 8.6435 0.68069C9.0504 1.24849 9.5443 1.50009 9.9999 1.50009C10.4554 1.50009 10.9493 1.24849 11.3562 0.68069C11.5947 0.34797 12.0119 0.19418 12.4093 0.29252ZM9.9999 5C7.23852 5 4.99995 7.23858 4.99995 10C4.99995 12.7614 7.23852 15 9.9999 15C12.7614 15 14.9999 12.7614 14.9999 10C14.9999 7.23858 12.7614 5 9.9999 5ZM9.9999 7C11.6568 7 12.9999 8.3431 12.9999 10C12.9999 11.6569 11.6568 13 9.9999 13C8.3431 13 6.99995 11.6569 6.99995 10C6.99995 8.3431 8.3431 7 9.9999 7Z" fill="white" fill-opacity="0.7"/>
</svg>
