<svg width="20" height="20" viewBox="0 0 20 20" fill="none" xmlns="http://www.w3.org/2000/svg">
<path fill-rule="evenodd" clip-rule="evenodd" d="M3 7C3 3.13401 6.13401 0 10 0C13.866 0 17 3.13401 17 7V8.0354C18.6961 8.2781 20 9.7368 20 11.5V11.75C20 13.5449 18.5449 15 16.75 15C16.7224 15 16.695 14.9994 16.6678 14.9981C15.9274 17.118 14.0464 18.5467 12.0149 18.9093C11.5456 19.0808 10.9889 19 10.5 19C9.6716 19 9 18.3284 9 17.5C9 16.6716 9.6716 16 10.5 16H11.5C11.9946 16 12.4333 16.2394 12.7065 16.6086C14.0035 15.9919 15 14.6885 15 13V7C15 4.23858 12.7614 2 10 2C7.23858 2 5 4.23858 5 7V13.25C5 14.2165 4.2165 15 3.25 15C1.45507 15 0 13.5449 0 11.75V11.5C0 9.7368 1.30385 8.2781 3 8.0354V7ZM3 10.0854C2.4174 10.2913 2 10.8469 2 11.5V11.75C2 12.3547 2.42944 12.8592 3 12.975V10.0854ZM17 10.0854V12.975C17.5706 12.8592 18 12.3547 18 11.75V11.5C18 10.8469 17.5826 10.2913 17 10.0854Z" fill="white" fill-opacity="0.7"/>
</svg>
