<svg width="18" height="18" viewBox="0 0 18 18" fill="none" xmlns="http://www.w3.org/2000/svg">
<path fill-rule="evenodd" clip-rule="evenodd" d="M16 8C17.0544 8 17.9182 8.81585 17.9945 9.85073L18 10V16C18 17.0544 17.1841 17.9182 16.1493 17.9945L16 18H12C10.9456 18 10.0818 17.1841 10.0055 16.1493L10 16V10C10 8.94561 10.8159 8.08183 11.8507 8.00549L12 8H16ZM6 12C7.1046 12 8 12.8954 8 14V16C8 17.1046 7.1046 18 6 18H2C0.89543 18 0 17.1046 0 16V14C0 12.8954 0.89543 12 2 12H6ZM6 0C7.1046 0 8 0.89543 8 2V8C8 9.1046 7.1046 10 6 10H2C0.89543 10 0 9.1046 0 8V2C0 0.89543 0.89543 0 2 0H6ZM16 0C17.1046 0 18 0.89543 18 2V4C18 5.10457 17.1046 6 16 6H12C10.8954 6 10 5.10457 10 4V2C10 0.89543 10.8954 0 12 0H16Z" fill="#6A67F3"/>
</svg>
